<svg xmlns="http://www.w3.org/2000/svg" xmlns:xlink="http://www.w3.org/1999/xlink" fill="none" version="1.1" width="9" height="10.000000953674316" viewBox="0 0 9 10.000000953674316"><g style="mix-blend-mode:passthrough"><path d="M4.5,1C3.67158,1,3,1.67158,3,2.5C3,3.32843,3.67158,4,4.5,4C5.32845,4,6,3.32843,6,2.5C6,1.67158,5.32845,1,4.5,1C4.5,1,4.5,1,4.5,1ZM2,2.5C2,1.11929,3.11929,0,4.5,0C5.8807,0,7,1.11929,7,2.5C7,3.88071,5.8807,5,4.5,5C3.11929,5,2,3.88071,2,2.5C2,2.5,2,2.5,2,2.5ZM0.732235,6.73225C1.20107,6.2634,1.83696,6,2.5,6C2.5,6,6.5,6,6.5,6C7.16305,6,7.79895,6.2634,8.26775,6.73225C8.7366,7.20105,9,7.83695,9,8.5C9,8.5,9,9.5,9,9.5C9,9.77615,8.77615,10,8.5,10C8.22385,10,8,9.77615,8,9.5C8,9.5,8,8.5,8,8.5C8,8.1022,7.84195,7.72065,7.56065,7.43935C7.27935,7.15805,6.8978,7,6.5,7C6.5,7,2.5,7,2.5,7C2.10217,7,1.72064,7.15805,1.43934,7.43935C1.15804,7.72065,1,8.10215,1,8.5C1,8.5,1,9.5,1,9.5C1,9.77615,0.77614,10,0.5,10C0.223858,10,0,9.77615,0,9.5C0,9.5,0,8.5,0,8.5C0,7.83695,0.263392,7.20105,0.732235,6.73225C0.732235,6.73225,0.732235,6.73225,0.732235,6.73225Z" fill-rule="evenodd" fill="#000000" fill-opacity="0.30000001192092896"/></g></svg>