<svg xmlns="http://www.w3.org/2000/svg" xmlns:xlink="http://www.w3.org/1999/xlink" fill="none" version="1.1" width="20.0000057220459" height="20.000001907348633" viewBox="0 0 20.0000057220459 20.000001907348633"><g><path d="M19.422,13.358C15.592,12.205,13.367,11.518,12.744,11.296C13.3418,10.2588,13.7864,9.14054,14.064,7.976L10.8,7.976L10.8,6.872L14.8,6.872L14.8,6.192L10.8,6.192L10.8,4.344L9.264,4.344Q8.984,4.344,8.952,4.592L8.952,6.184L5.2,6.184L5.2,6.864L8.952,6.864L8.952,7.968L5.88,7.968L5.88,8.584L12.104,8.584C11.8868,9.33904,11.5891,10.0686,11.216,10.76C9.808,10.296,9.024,9.976,7.304,9.816C4.048,9.504,3.296,11.296,3.176,12.392C3,14.064,4.48,15.424,6.688,15.424C8.896,15.424,10.368,14.4,11.768,12.704C12.935,13.262,15.106,14.229,18.282,15.606C16.4227,18.3556,13.3192,20.0021,10,20C4.477,20,0,15.523,0,10C0,4.477,4.477,0,10,0C15.523,0,20,4.477,20,10C20.0012,11.1442,19.8057,12.2801,19.422,13.358ZM6.432,14.368C4.096,14.368,3.728,12.888,3.848,12.272C3.968,11.656,4.648,10.856,5.952,10.856C7.448,10.856,8.784,11.24,10.392,12.016C9.256,13.496,7.872,14.368,6.432,14.368Z" fill="#3662EC" fill-opacity="1"/></g></svg>