<svg xmlns="http://www.w3.org/2000/svg" xmlns:xlink="http://www.w3.org/1999/xlink" fill="none" version="1.1" width="9.333333969116211" height="5.333333492279053" viewBox="0 0 9.333333969116211 5.333333492279053"><g style="mix-blend-mode:passthrough"><path d="M0.195262,0.195262C0.455611,-0.0650874,0.87772,-0.0650874,1.13807,0.195262C1.13807,0.195262,4.66667,3.72386,4.66667,3.72386C4.66667,3.72386,8.19527,0.195262,8.19527,0.195262C8.4556,-0.0650874,8.87773,-0.0650874,9.13807,0.195262C9.3984,0.455611,9.3984,0.87772,9.13807,1.13807C9.13807,1.13807,5.13807,5.13807,5.13807,5.13807C4.87772,5.39842,4.45561,5.39842,4.19526,5.13807C4.19526,5.13807,0.195262,1.13807,0.195262,1.13807C-0.0650874,0.87772,-0.0650874,0.455611,0.195262,0.195262C0.195262,0.195262,0.195262,0.195262,0.195262,0.195262Z" fill-rule="evenodd" fill="#FFFFFF" fill-opacity="1"/></g></svg>