<svg xmlns="http://www.w3.org/2000/svg" xmlns:xlink="http://www.w3.org/1999/xlink" fill="none" version="1.1" width="32" height="32" viewBox="0 0 32 32"><defs><clipPath id="master_svg0_483_105"><rect x="0" y="0" width="32" height="32" rx="0"/></clipPath><filter id="master_svg1_483_108" filterUnits="objectBoundingBox" color-interpolation-filters="sRGB" x="-20" y="-16" width="44.666666984558105" height="44.666666984558105"><feFlood flood-opacity="0" result="BackgroundImageFix"/><feColorMatrix in="SourceAlpha" type="matrix" values="0 0 0 0 0 0 0 0 0 0 0 0 0 0 0 0 0 0 127 0"/><feOffset dy="4" dx="0"/><feGaussianBlur stdDeviation="5"/><feColorMatrix type="matrix" values="0 0 0 0 0 0 0 0 0 0 0 0 0 0 0 0 0 0 0.3019607961177826 0"/><feBlend mode="normal" in2="BackgroundImageFix" result="effect1_dropShadow"/><feBlend mode="normal" in="SourceGraphic" in2="effect1_dropShadow" result="shape"/></filter></defs><g clip-path="url(#master_svg0_483_105)"><g filter="url(#master_svg1_483_108)"><ellipse cx="13.666707515716553" cy="27.66666555404663" rx="2.3333334922790527" ry="2.3333334922790527" fill-opacity="0" stroke-opacity="1" stroke="#000000" fill="none" stroke-width="2"/></g><g><ellipse cx="24.999959468841553" cy="27.66666555404663" rx="2.3333334922790527" ry="2.3333334922790527" fill-opacity="0" stroke-opacity="1" stroke="#000000" fill="none" stroke-width="2"/></g><g><path d="M16.6666740234375,10.33333L29.3333740234375,10.33333Q29.4318740234375,10.33333,29.5284740234375,10.35255Q29.6250740234375,10.37176,29.7160740234375,10.40945Q29.8070740234375,10.447140000000001,29.8889740234375,10.50186Q29.9708740234375,10.55658,30.0404740234375,10.62623Q30.1100740234375,10.69587,30.1648740234375,10.77776Q30.2195740234375,10.85965,30.2572740234375,10.95065Q30.2949740234375,11.041640000000001,30.3141740234375,11.13824Q30.3333740234375,11.23484,30.3333740234375,11.33333Q30.3333740234375,11.47734,30.2927740234375,11.6155L26.9593740234375,22.9488Q26.9366740234375,23.026,26.9019740234375,23.0986Q26.8671740234375,23.1712,26.8212740234375,23.2373Q26.7753740234375,23.3034,26.7194740234375,23.3612Q26.6635740234375,23.4191,26.5991740234375,23.4673Q26.5346740234375,23.5156,26.4633740234375,23.5528Q26.3920740234375,23.5901,26.3157740234375,23.6155Q26.2393740234375,23.6409,26.1599740234375,23.6538Q26.0804740234375,23.6667,26.0000740234375,23.6667L12.6667040234375,23.6667Q12.5823040234375,23.6667,12.4990840234375,23.6525Q12.4158740234375,23.6384,12.3362140234375,23.6105Q12.2565440234375,23.5826,12.1826840234375,23.5417Q12.1088240234375,23.5009,12.0428540234375,23.4482Q11.9768840234375,23.3956,11.9206840234375,23.3326Q11.8644740234375,23.2696,11.8196140234375,23.1981Q11.7747540234375,23.1266,11.7425240234375,23.0486Q11.7102840234375,22.9706,11.6915740234375,22.8883L8.3582440234375,8.22162L9.3333740234375,8L8.7786740234375,8.832049999999999L2.7786740234375,4.83205Q2.6967240234375,4.777417,2.6270070234375,4.707846Q2.5572910234375,4.638275,2.5024860234375,4.55644Q2.4476820234375,4.474604,2.4098950234375,4.38365Q2.3721090234375,4.292695,2.3527930234375,4.196116Q2.3334780234375,4.0995374,2.3333750234375,4.00104603Q2.3332740234375002,3.9025547,2.3523850234375,3.805936Q2.3714990234375,3.709317,2.4090950234375,3.618283Q2.4466910234375,3.52725,2.5013240234375003,3.4453Q2.5559570234375,3.36335,2.6255280234375,3.293633Q2.6950990234375,3.223917,2.7769340234374997,3.169112Q2.8587700234374998,3.114308,2.9497240234375,3.076521Q3.0406790234375,3.038735,3.1372580234375,3.019419Q3.2338366234375,3.000104,3.3323279934375,3.000001Q3.4308193234375,2.9999000000000002,3.5274380234375,3.019011Q3.6240570234375,3.038125,3.7150910234375,3.075721Q3.8061240234375,3.113317,3.8880740234375,3.1679500000000003L9.8880740234375,7.167949999999999Q10.0479440234375,7.27453,10.1569340234375,7.43277Q10.265924023437499,7.59101,10.3085040234375,7.77838L13.6418740234375,22.445L12.6667040234375,22.6667L12.6667040234375,21.6667L26.0000740234375,21.6667L26.0000740234375,22.6667L25.0406740234375,22.3845L28.3739740234375,11.051169999999999L29.3333740234375,11.33333L29.3333740234375,12.33333L16.6666740234375,12.33333Q16.5681740234375,12.33333,16.471574023437498,12.31412Q16.374974023437503,12.2949,16.2839740234375,12.25721Q16.1930740234375,12.21952,16.1111740234375,12.1648Q16.0292740234375,12.11008,15.9595740234375,12.04044Q15.8899740234375,11.9708,15.8352740234375,11.8889Q15.7804740234375,11.80701,15.7428740234375,11.71602Q15.7051740234375,11.62502,15.6858740234375,11.52842Q15.6666740234375,11.43182,15.6666740234375,11.33333Q15.6666740234375,11.23484,15.6858740234375,11.13824Q15.7051740234375,11.041640000000001,15.7428740234375,10.95065Q15.7804740234375,10.85965,15.8352740234375,10.77776Q15.8899740234375,10.69587,15.9595740234375,10.62623Q16.0292740234375,10.55658,16.1111740234375,10.50186Q16.1930740234375,10.447140000000001,16.2839740234375,10.40945Q16.374974023437503,10.37176,16.471574023437498,10.35255Q16.5681740234375,10.33333,16.6666740234375,10.33333ZM17.6666740234375,11.33333Q17.6666740234375,11.43183,17.6474740234375,11.52842Q17.6282740234375,11.62502,17.590574023437497,11.71602Q17.5528740234375,11.80701,17.4981740234375,11.8889Q17.4434740234375,11.9708,17.373774023437498,12.04044Q17.3041740234375,12.11008,17.2222740234375,12.1648Q17.140374023437502,12.21952,17.0493740234375,12.25721Q16.9583740234375,12.2949,16.861774023437498,12.31412Q16.765174023437503,12.33333,16.6666740234375,12.33333Q16.5681740234375,12.33333,16.471574023437498,12.31412Q16.374974023437503,12.2949,16.2839740234375,12.25721Q16.1930740234375,12.21952,16.1111740234375,12.1648Q16.0292740234375,12.11008,15.9595740234375,12.04044Q15.8899740234375,11.9708,15.8352740234375,11.8889Q15.7804740234375,11.80701,15.7428740234375,11.71602Q15.7051740234375,11.62502,15.6858740234375,11.52842Q15.6666740234375,11.43183,15.6666740234375,11.33333Q15.6666740234375,11.23484,15.6858740234375,11.13824Q15.7051740234375,11.041640000000001,15.7428740234375,10.95065Q15.7804740234375,10.85966,15.8352740234375,10.77776Q15.8899740234375,10.69587,15.9595740234375,10.62623Q16.0292740234375,10.55658,16.1111740234375,10.50186Q16.1930740234375,10.447140000000001,16.2839740234375,10.40945Q16.374974023437503,10.37176,16.471574023437498,10.35255Q16.5681740234375,10.33333,16.6666740234375,10.33333Q16.765174023437503,10.33333,16.861774023437498,10.35255Q16.9583740234375,10.37176,17.0493740234375,10.40945Q17.140374023437502,10.447140000000001,17.2222740234375,10.50186Q17.3041740234375,10.55658,17.373774023437498,10.62623Q17.4434740234375,10.69587,17.4981740234375,10.77776Q17.5528740234375,10.85966,17.590574023437497,10.95065Q17.6282740234375,11.041640000000001,17.6474740234375,11.13824Q17.6666740234375,11.23484,17.6666740234375,11.33333ZM4.3333740234375,4Q4.3333740234375,4.0984914,4.3141590234375,4.19509Q4.2949440234375,4.291689,4.2572530234375,4.382683Q4.2195620234375,4.473678,4.1648440234375,4.55557Q4.1101250234375,4.637463,4.0404810234375,4.707107Q3.9708370234375,4.776751,3.8889440234375,4.83147Q3.8070520234375,4.886188,3.7160570234375,4.923879Q3.6250630234375,4.96157,3.5284640234375,4.980785Q3.4318654234375,5,3.3333740234375,5Q3.2348826234375,5,3.1382840234375,4.980785Q3.0416850234375,4.96157,2.9506910234375,4.923879Q2.8596960234375,4.886188,2.7778040234375,4.83147Q2.6959110234375,4.776751,2.6262670234375,4.707107Q2.5566230234375,4.637463,2.5019040234375,4.55557Q2.4471860234375002,4.473678,2.4094950234375,4.382683Q2.3718040234375,4.291689,2.3525890234375,4.19509Q2.3333740234375,4.0984914,2.3333740234375,4Q2.3333740234375,3.9015086,2.3525890234375,3.80491Q2.3718040234375,3.708311,2.4094950234375,3.617317Q2.4471860234375002,3.526322,2.5019040234375,3.44443Q2.5566230234375,3.362537,2.6262670234375,3.292893Q2.6959110234375,3.223249,2.7778040234375,3.16853Q2.8596960234375,3.1138120000000002,2.9506910234375,3.076121Q3.0416850234375,3.03843,3.1382840234375,3.019215Q3.2348826234375,3,3.3333740234375,3Q3.4318654234375,3,3.5284640234375,3.019215Q3.6250630234375,3.03843,3.7160570234375,3.076121Q3.8070520234375,3.1138120000000002,3.8889440234375,3.16853Q3.9708370234375,3.223249,4.0404810234375,3.292893Q4.1101250234375,3.362537,4.1648440234375,3.44443Q4.2195620234375,3.526322,4.2572530234375,3.617317Q4.2949440234375,3.708311,4.3141590234375,3.80491Q4.3333740234375,3.9015086,4.3333740234375,4Z" fill="#333333" fill-opacity="1"/></g><g><path d="M27.3333259765625,18.333332061767578L21.5150959765625,18.333332061767578L16.6666259765625,18.333332061767578Q16.5681345765625,18.333332061767578,16.4715359765625,18.31411706176758Q16.3749369765625,18.29490206176758,16.2839429765625,18.257211061767578Q16.1929479765625,18.21952006176758,16.1110559765625,18.164802061767578Q16.0291629765625,18.11008306176758,15.9595189765625,18.04043906176758Q15.8898749765625,17.97079506176758,15.8351559765625,17.888902061767578Q15.7804379765625,17.807010061767578,15.7427469765625,17.71601506176758Q15.7050559765625,17.62502106176758,15.685840976562499,17.52842206176758Q15.6666259765625,17.43182346176758,15.6666259765625,17.333332061767578Q15.6666259765625,17.234840661767578,15.685840976562499,17.138242061767578Q15.7050559765625,17.041643061767576,15.7427469765625,16.950649061767578Q15.7804379765625,16.85965406176758,15.8351559765625,16.77776206176758Q15.8898749765625,16.695869061767578,15.9595189765625,16.626225061767578Q16.0291629765625,16.556581061767577,16.1110559765625,16.50186206176758Q16.1929479765625,16.447144061767577,16.2839429765625,16.40945306176758Q16.3749369765625,16.371762061767576,16.4715359765625,16.352547061767577Q16.5681345765625,16.333332061767578,16.6666259765625,16.333332061767578L21.5150959765625,16.333332061767578L27.3333259765625,16.333332061767578Q27.4318259765625,16.333332061767578,27.528425976562502,16.352547061767577Q27.625025976562497,16.371762061767576,27.715925976562502,16.40945306176758Q27.8069259765625,16.447144061767577,27.8888259765625,16.50186206176758Q27.9707259765625,16.556581061767577,28.0404259765625,16.626225061767578Q28.1100259765625,16.695869061767578,28.1647259765625,16.77776206176758Q28.2195259765625,16.85965406176758,28.2571259765625,16.950649061767578Q28.2948259765625,17.041643061767576,28.3141259765625,17.138242061767578Q28.3333259765625,17.234840661767578,28.3333259765625,17.333332061767578Q28.3333259765625,17.43182346176758,28.3141259765625,17.52842206176758Q28.2948259765625,17.62502106176758,28.2571259765625,17.71601506176758Q28.2195259765625,17.807010061767578,28.1647259765625,17.888902061767578Q28.1100259765625,17.97079506176758,28.0404259765625,18.04043906176758Q27.9707259765625,18.11008306176758,27.8888259765625,18.164802061767578Q27.8069259765625,18.21952006176758,27.715925976562502,18.257211061767578Q27.625025976562497,18.29490206176758,27.528425976562502,18.31411706176758Q27.4318259765625,18.333332061767578,27.3333259765625,18.333332061767578ZM28.3333259765625,17.333332061767578Q28.3333259765625,17.43182346176758,28.3141259765625,17.52842206176758Q28.2948259765625,17.62502106176758,28.2571259765625,17.71601506176758Q28.2195259765625,17.807010061767578,28.1647259765625,17.888902061767578Q28.1100259765625,17.97079506176758,28.0404259765625,18.04043906176758Q27.9707259765625,18.11008306176758,27.8888259765625,18.164802061767578Q27.8069259765625,18.21952006176758,27.715925976562502,18.257211061767578Q27.625025976562497,18.29490206176758,27.528425976562502,18.31411706176758Q27.4318259765625,18.333332061767578,27.3333259765625,18.333332061767578Q27.234825976562497,18.333332061767578,27.138225976562502,18.31411706176758Q27.0416259765625,18.29490206176758,26.9506259765625,18.257211061767578Q26.859625976562498,18.21952006176758,26.7777259765625,18.164802061767578Q26.6958259765625,18.11008306176758,26.6261859765625,18.04043906176758Q26.5565359765625,17.97079506176758,26.5018259765625,17.888902061767578Q26.4471059765625,17.807010061767578,26.4094159765625,17.71601506176758Q26.3717259765625,17.62502106176758,26.352505976562497,17.52842206176758Q26.3332959765625,17.43182346176758,26.3332959765625,17.333332061767578Q26.3332959765625,17.234840661767578,26.352505976562497,17.138242061767578Q26.3717259765625,17.041643061767576,26.4094159765625,16.950649061767578Q26.4471059765625,16.85965406176758,26.5018259765625,16.77776206176758Q26.5565359765625,16.695869061767578,26.6261859765625,16.626225061767578Q26.6958259765625,16.556581061767577,26.7777259765625,16.50186206176758Q26.859625976562498,16.447144061767577,26.9506259765625,16.40945306176758Q27.0416259765625,16.371762061767576,27.138225976562502,16.352547061767577Q27.234825976562497,16.333332061767578,27.3333259765625,16.333332061767578Q27.4318259765625,16.333332061767578,27.528425976562502,16.352547061767577Q27.625025976562497,16.371762061767576,27.715925976562502,16.40945306176758Q27.8069259765625,16.447144061767577,27.8888259765625,16.50186206176758Q27.9707259765625,16.556581061767577,28.0404259765625,16.626225061767578Q28.1100259765625,16.695869061767578,28.1647259765625,16.77776206176758Q28.2195259765625,16.85965406176758,28.2571259765625,16.950649061767578Q28.2948259765625,17.041643061767576,28.3141259765625,17.138242061767578Q28.3333259765625,17.234840661767578,28.3333259765625,17.333332061767578ZM17.6666259765625,17.333332061767578Q17.6666259765625,17.43182346176758,17.6474109765625,17.52842206176758Q17.628195976562502,17.62502106176758,17.5905049765625,17.71601506176758Q17.5528139765625,17.807010061767578,17.4980959765625,17.888902061767578Q17.4433769765625,17.97079506176758,17.3737329765625,18.04043906176758Q17.3040889765625,18.11008306176758,17.2221959765625,18.164802061767578Q17.1403039765625,18.21952006176758,17.0493089765625,18.257211061767578Q16.9583149765625,18.29490206176758,16.8617159765625,18.31411706176758Q16.7651173765625,18.333332061767578,16.6666259765625,18.333332061767578Q16.5681345765625,18.333332061767578,16.4715359765625,18.31411706176758Q16.3749369765625,18.29490206176758,16.2839429765625,18.257211061767578Q16.1929479765625,18.21952006176758,16.1110559765625,18.164802061767578Q16.0291629765625,18.11008306176758,15.9595189765625,18.04043906176758Q15.8898749765625,17.97079506176758,15.8351559765625,17.888902061767578Q15.7804379765625,17.807010061767578,15.7427469765625,17.71601506176758Q15.7050559765625,17.62502106176758,15.685840976562499,17.52842206176758Q15.6666259765625,17.43182346176758,15.6666259765625,17.333332061767578Q15.6666259765625,17.234840661767578,15.685840976562499,17.138242061767578Q15.7050559765625,17.041643061767576,15.7427469765625,16.950649061767578Q15.7804379765625,16.85965406176758,15.8351559765625,16.77776206176758Q15.8898749765625,16.695869061767578,15.9595189765625,16.626225061767578Q16.0291629765625,16.556581061767577,16.1110559765625,16.50186206176758Q16.1929479765625,16.447144061767577,16.2839429765625,16.40945306176758Q16.3749369765625,16.371762061767576,16.4715359765625,16.352547061767577Q16.5681345765625,16.333332061767578,16.6666259765625,16.333332061767578Q16.7651173765625,16.333332061767578,16.8617159765625,16.352547061767577Q16.9583149765625,16.371762061767576,17.0493089765625,16.40945306176758Q17.1403039765625,16.447144061767577,17.2221959765625,16.50186206176758Q17.3040889765625,16.556581061767577,17.3737329765625,16.626225061767578Q17.4433769765625,16.695869061767578,17.4980959765625,16.77776206176758Q17.5528139765625,16.85965406176758,17.5905049765625,16.950649061767578Q17.628195976562502,17.041643061767576,17.6474109765625,17.138242061767578Q17.6666259765625,17.234840661767578,17.6666259765625,17.333332061767578Z" fill="#333333" fill-opacity="1"/></g></g></svg>