<svg xmlns="http://www.w3.org/2000/svg" xmlns:xlink="http://www.w3.org/1999/xlink" fill="none" version="1.1" width="24" height="24" viewBox="0 0 24 24"><defs><clipPath id="master_svg0_552_9474"><rect x="0" y="0" width="24" height="24" rx="0"/></clipPath></defs><g style="mix-blend-mode:passthrough" clip-path="url(#master_svg0_552_9474)"><g style="mix-blend-mode:passthrough"><path d="M6.13867,0.0000383509C6.69093,0.00482466,7.13475,0.456403,7.12996,1.00867C7.12996,1.00867,7.0947,5.07714,7.0947,5.07714C7.0947,5.07714,16,4.99996,16,4.99996C16.7957,4.99996,17.5587,5.31607,18.1213,5.87868C18.6839,6.44129,19,7.20435,19,8C19,8,19,17,19,17C19,17,23,17,23,17C23.5523,17,24,17.4477,24,18C24,18.5523,23.5523,19,23,19C23,19,19,19,19,19C19,19,19,23,19,23C19,23.5523,18.5523,24,18,24C17.4477,24,17,23.5523,17,23C17,23,17,19,17,19C17,19,8,19,8,19C7.20435,19,6.44129,18.6839,5.87868,18.1213C5.31607,17.5587,5,16.7957,5,16C5,16,5,15.9913,5,15.9913C5,15.9913,5.07714,7.0947,5.07714,7.0947C5.07714,7.0947,1.00867,7.12996,1.00867,7.12996C0.456403,7.13475,0.00482466,6.69093,0.0000383509,6.13867C-0.0047479,5.5864,0.43907,5.13482,0.991334,5.13004C0.991334,5.13004,5.09448,5.09448,5.09448,5.09448C5.09448,5.09448,5.13004,0.991334,5.13004,0.991334C5.13482,0.43907,5.5864,-0.0047479,6.13867,0.0000383509C6.13867,0.0000383509,6.13867,0.0000383509,6.13867,0.0000383509ZM7.07737,7.07737C7.07737,7.07737,7.00001,16.0036,7.00001,16.0036C7.00095,16.2675,7.1062,16.5204,7.29289,16.7071C7.48043,16.8946,7.73479,17,8,17C8,17,17,17,17,17C17,17,17,8,17,8C17,7.73479,16.8946,7.48043,16.7071,7.29289C16.5204,7.1062,16.2675,7.00095,16.0036,7.00001C16.0036,7.00001,7.07737,7.07737,7.07737,7.07737C7.07737,7.07737,7.07737,7.07737,7.07737,7.07737Z" fill-rule="evenodd" fill="#000000" fill-opacity="1"/></g></g></svg>