<svg xmlns="http://www.w3.org/2000/svg" xmlns:xlink="http://www.w3.org/1999/xlink" fill="none" version="1.1" width="14" height="14" viewBox="0 0 14 14"><g style="mix-blend-mode:passthrough"><path d="M0.292893,0.292893C0.683417,-0.0976311,1.31658,-0.0976311,1.70711,0.292893C1.70711,0.292893,7,5.58579,7,5.58579C7,5.58579,12.2929,0.292893,12.2929,0.292893C12.6834,-0.0976311,13.3166,-0.0976311,13.7071,0.292893C14.0976,0.683417,14.0976,1.31658,13.7071,1.70711C13.7071,1.70711,8.41421,7,8.41421,7C8.41421,7,13.7071,12.2929,13.7071,12.2929C14.0976,12.6834,14.0976,13.3166,13.7071,13.7071C13.3166,14.0976,12.6834,14.0976,12.2929,13.7071C12.2929,13.7071,7,8.41421,7,8.41421C7,8.41421,1.70711,13.7071,1.70711,13.7071C1.31658,14.0976,0.683417,14.0976,0.292893,13.7071C-0.0976311,13.3166,-0.0976311,12.6834,0.292893,12.2929C0.292893,12.2929,5.58579,7,5.58579,7C5.58579,7,0.292893,1.70711,0.292893,1.70711C-0.0976311,1.31658,-0.0976311,0.683417,0.292893,0.292893C0.292893,0.292893,0.292893,0.292893,0.292893,0.292893Z" fill-rule="evenodd" fill="#000000" fill-opacity="0.1599999964237213"/></g></svg>