<svg xmlns="http://www.w3.org/2000/svg" xmlns:xlink="http://www.w3.org/1999/xlink" fill="none" version="1.1" width="16" height="16" viewBox="0 0 16 16"><defs><clipPath id="master_svg0_690_496"><rect x="0" y="0" width="16" height="16" rx="0"/></clipPath></defs><g style="mix-blend-mode:passthrough" clip-path="url(#master_svg0_690_496)"><g style="mix-blend-mode:passthrough"><path d="M2.666748046875,1.99983390625C2.4899380468750003,1.99983390625,2.320368046875,2.07007390625,2.195338046875,2.19509390625C2.070318046875,2.32012390625,2.000078046875,2.4896939062500003,2.000078046875,2.66650390625C2.000078046875,2.66650390625,2.000078046875,8.66650390625,2.000078046875,8.66650390625C2.000078046875,8.84330390625,2.070318046875,9.01290390625,2.195338046875,9.13790390625C2.320368046875,9.26290390625,2.4899380468750003,9.33317390625,2.666748046875,9.33317390625C2.666748046875,9.33317390625,3.333418046875,9.33317390625,3.333418046875,9.33317390625C3.701598046875,9.33317390625,4.000078046875,9.63163390625,4.000078046875,9.99983390625C4.000078046875,10.36804390625,3.701598046875,10.66650390625,3.333418046875,10.66650390625C3.333418046875,10.66650390625,2.666748046875,10.66650390625,2.666748046875,10.66650390625C2.136318046875,10.66650390625,1.627608046875,10.45577390625,1.2525350468749998,10.08070390625C0.877461046875,9.70563390625,0.666748046875,9.19690390625,0.666748046875,8.66650390625C0.666748046875,8.66650390625,0.666748046875,2.66650390625,0.666748046875,2.66650390625C0.666748046875,2.13607390625,0.877461046875,1.62736390625,1.2525350468749998,1.2522909062499998C1.627608046875,0.87721690625,2.136318046875,0.66650390625,2.666748046875,0.66650390625C2.666748046875,0.66650390625,8.666748046875,0.66650390625,8.666748046875,0.66650390625C9.197148046875,0.66650390625,9.705878046875,0.87721690625,10.080948046875,1.2522909062499998C10.456018046875,1.62736390625,10.666748046875,2.13607390625,10.666748046875,2.66650390625C10.666748046875,2.66650390625,10.666748046875,3.33317390625,10.666748046875,3.33317390625C10.666748046875,3.70135390625,10.368288046875,3.99983390625,10.000078046875,3.99983390625C9.631878046875,3.99983390625,9.333418046875,3.70135390625,9.333418046875,3.33317390625C9.333418046875,3.33317390625,9.333418046875,2.66650390625,9.333418046875,2.66650390625C9.333418046875,2.4896939062500003,9.263148046875,2.32012390625,9.138148046875,2.19509390625C9.013148046875,2.07007390625,8.843548046875,1.99983390625,8.666748046875,1.99983390625C8.666748046875,1.99983390625,2.666748046875,1.99983390625,2.666748046875,1.99983390625C2.666748046875,1.99983390625,2.666748046875,1.99983390625,2.666748046875,1.99983390625ZM7.333418046875,6.66650390625C6.965218046875,6.66650390625,6.666748046875,6.96497390625,6.666748046875,7.33317390625C6.666748046875,7.33317390625,6.666748046875,13.33320390625,6.666748046875,13.33320390625C6.666748046875,13.70140390625,6.965218046875,13.99980390625,7.333418046875,13.99980390625C7.333418046875,13.99980390625,13.333448046875,13.99980390625,13.333448046875,13.99980390625C13.701648046875,13.99980390625,14.000048046875,13.70140390625,14.000048046875,13.33320390625C14.000048046875,13.33320390625,14.000048046875,7.33317390625,14.000048046875,7.33317390625C14.000048046875,6.96497390625,13.701648046875,6.66650390625,13.333448046875,6.66650390625C13.333448046875,6.66650390625,7.333418046875,6.66650390625,7.333418046875,6.66650390625C7.333418046875,6.66650390625,7.333418046875,6.66650390625,7.333418046875,6.66650390625ZM5.333418046875,7.33317390625C5.333418046875,6.22860390625,6.228848046875,5.33317390625,7.333418046875,5.33317390625C7.333418046875,5.33317390625,13.333448046875,5.33317390625,13.333448046875,5.33317390625C14.438048046875,5.33317390625,15.333448046875,6.22860390625,15.333448046875,7.33317390625C15.333448046875,7.33317390625,15.333448046875,13.33320390625,15.333448046875,13.33320390625C15.333448046875,14.43780390625,14.438048046875,15.33320390625,13.333448046875,15.33320390625C13.333448046875,15.33320390625,7.333418046875,15.33320390625,7.333418046875,15.33320390625C6.228848046875,15.33320390625,5.333418046875,14.43780390625,5.333418046875,13.33320390625C5.333418046875,13.33320390625,5.333418046875,7.33317390625,5.333418046875,7.33317390625C5.333418046875,7.33317390625,5.333418046875,7.33317390625,5.333418046875,7.33317390625Z" fill-rule="evenodd" fill="#000000" fill-opacity="0.6000000238418579"/></g></g></svg>