<svg xmlns="http://www.w3.org/2000/svg" xmlns:xlink="http://www.w3.org/1999/xlink" fill="none" version="1.1" width="18" height="13" viewBox="0 0 18 13"><g style="mix-blend-mode:passthrough"><path d="M17.7071,0.292893C18.0976,0.683417,18.0976,1.31658,17.7071,1.70711C17.7071,1.70711,6.70711,12.7071,6.70711,12.7071C6.31658,13.0976,5.68342,13.0976,5.29289,12.7071C5.29289,12.7071,0.292893,7.70711,0.292893,7.70711C-0.0976311,7.31658,-0.0976311,6.68342,0.292893,6.29289C0.683417,5.90237,1.31658,5.90237,1.70711,6.29289C1.70711,6.29289,6,10.5858,6,10.5858C6,10.5858,16.2929,0.292893,16.2929,0.292893C16.6834,-0.0976311,17.3166,-0.0976311,17.7071,0.292893C17.7071,0.292893,17.7071,0.292893,17.7071,0.292893Z" fill-rule="evenodd" fill="#000000" fill-opacity="1"/></g></svg>