<svg xmlns="http://www.w3.org/2000/svg" xmlns:xlink="http://www.w3.org/1999/xlink" fill="none" version="1.1" width="29" height="29" viewBox="0 0 29 29"><defs><clipPath id="master_svg0_649_0306"><rect x="0" y="0" width="29" height="29" rx="4"/></clipPath><clipPath id="master_svg1_649_0333"><rect x="5" y="5" width="6" height="6" rx="3"/></clipPath></defs><g style="mix-blend-mode:passthrough" clip-path="url(#master_svg0_649_0306)"><g style="mix-blend-mode:passthrough"><path d="M25.6318,15.99614Q23.9197,13,22.5,13Q22.046,13,20.0912,16.04076Q18.9328,17.84273,18.3463,18.54643Q17.134999999999998,20,16,20Q15.048,20,14.2095,19.33062Q13.789,18.99492,13.0843,18.15868Q12.33697,17.27186,11.90564,16.95926Q11.27196,16.5,10.5,16.5Q9.451270000000001,16.5,7.87484,18.28662Q6.0783000000000005,20.322699999999998,3.883788,24.4679L2.116212,23.5321Q4.4216999999999995,19.17731,6.37516,16.96338Q8.548729999999999,14.5,10.5,14.5Q11.92049,14.5,13.0793,15.33984Q13.7087,15.79599,14.6137,16.86987Q15.1911,17.55508,15.4573,17.76759Q15.7484,18,16,18Q16.454,18,18.4088,14.95924Q19.5672,13.15728,20.1537,12.453566Q21.365,11,22.5,11Q25.0803,11.000001,27.3682,15.00386L25.6318,15.99614ZM27.5,15.5Q27.5,15.59849,27.4808,15.69509Q27.4616,15.79169,27.4239,15.88268Q27.3862,15.97368,27.3315,16.05557Q27.2767,16.13746,27.2071,16.20711Q27.1375,16.27675,27.0556,16.33147Q26.9737,16.38619,26.8827,16.42388Q26.7917,16.461570000000002,26.6951,16.48078Q26.5985,16.5,26.5,16.5Q26.4015,16.5,26.3049,16.48078Q26.2083,16.461570000000002,26.1173,16.42388Q26.0263,16.38619,25.9444,16.33147Q25.8625,16.27675,25.7929,16.20711Q25.7232,16.13746,25.6685,16.05557Q25.6138,15.97368,25.5761,15.88268Q25.5384,15.79169,25.5192,15.69509Q25.5,15.59849,25.5,15.5Q25.5,15.40151,25.5192,15.30491Q25.5384,15.20831,25.5761,15.11732Q25.6138,15.02632,25.6685,14.94443Q25.7232,14.86254,25.7929,14.79289Q25.8625,14.72325,25.9444,14.66853Q26.0263,14.61381,26.1173,14.57612Q26.2083,14.53843,26.3049,14.519210000000001Q26.4015,14.5,26.5,14.5Q26.5985,14.5,26.6951,14.519210000000001Q26.7917,14.53843,26.8827,14.57612Q26.9737,14.61381,27.0556,14.66853Q27.1375,14.72325,27.2071,14.79289Q27.2767,14.86254,27.3315,14.94443Q27.3862,15.02632,27.4239,15.11732Q27.4616,15.20831,27.4808,15.30491Q27.5,15.40151,27.5,15.5ZM4,24Q4,24.0985,3.980785,24.1951Q3.96157,24.2917,3.923879,24.3827Q3.8861879999999998,24.4737,3.83147,24.5556Q3.776751,24.6375,3.707107,24.7071Q3.637463,24.776699999999998,3.55557,24.8315Q3.473678,24.886200000000002,3.382683,24.9239Q3.291689,24.9616,3.19509,24.980800000000002Q3.0984914,25,3,25Q2.9015086,25,2.80491,24.980800000000002Q2.708311,24.9616,2.617317,24.9239Q2.526322,24.886200000000002,2.44443,24.8315Q2.362537,24.776699999999998,2.292893,24.7071Q2.223249,24.6375,2.16853,24.5556Q2.1138120000000002,24.4737,2.076121,24.3827Q2.03843,24.2917,2.019215,24.1951Q2,24.0985,2,24Q2,23.9015,2.019215,23.8049Q2.03843,23.7083,2.076121,23.6173Q2.1138120000000002,23.5263,2.16853,23.4444Q2.223249,23.3625,2.292893,23.2929Q2.362537,23.2232,2.44443,23.1685Q2.526322,23.113799999999998,2.617317,23.0761Q2.708311,23.0384,2.80491,23.019199999999998Q2.9015086,23,3,23Q3.0984914,23,3.19509,23.019199999999998Q3.291689,23.0384,3.382683,23.0761Q3.473678,23.113799999999998,3.55557,23.1685Q3.637463,23.2232,3.707107,23.2929Q3.776751,23.3625,3.83147,23.4444Q3.8861879999999998,23.5263,3.923879,23.6173Q3.96157,23.7083,3.980785,23.8049Q4,23.9015,4,24Z" fill="#B3B3B3" fill-opacity="1"/></g><g style="mix-blend-mode:passthrough" clip-path="url(#master_svg1_649_0333)"><rect x="6" y="6" width="4" height="4" rx="2" fill-opacity="0" stroke-opacity="1" stroke="#B3B3B3" fill="none" stroke-width="2"/></g><rect x="1" y="1" width="27" height="27" rx="3" fill-opacity="0" stroke-opacity="0.30000001192092896" stroke="#000000" fill="none" stroke-width="2"/></g></svg>