<svg xmlns="http://www.w3.org/2000/svg" xmlns:xlink="http://www.w3.org/1999/xlink" fill="none" version="1.1" width="12" height="12" viewBox="0 0 12 12"><defs><clipPath id="master_svg0_733_295"><rect x="0" y="0" width="12" height="12" rx="0"/></clipPath></defs><g clip-path="url(#master_svg0_733_295)"><g><path d="M8.499998115234375,6.9999972265625L6.329498115234375,6.9999972265625C5.657298115234375,8.9012572265625,3.338248115234375,9.611107226562499,1.717008115234375,8.4118672265625C0.095756115234375,7.2126272265625,0.095756115234375,4.7873672265625,1.717008115234375,3.5881312265625C3.338248115234375,2.3888912265625,5.657298115234375,3.0987452265625,6.329498115234375,4.9999972265625L11.499968115234376,4.9999972265625L11.499968115234376,6.9999972265625L10.499998115234375,6.9999972265625L10.499998115234375,8.999997226562499L8.499998115234375,8.999997226562499L8.499998115234375,6.9999972265625ZM3.499998115234375,6.9999972265625C4.052278115234375,6.9999972265625,4.499998115234375,6.5522872265625,4.499998115234375,5.9999972265625C4.499998115234375,5.447717226562499,4.052278115234375,4.9999972265625,3.499998115234375,4.9999972265625C2.947708115234375,4.9999972265625,2.499998115234375,5.447717226562499,2.499998115234375,5.9999972265625C2.499998115234375,6.5522872265625,2.947708115234375,6.9999972265625,3.499998115234375,6.9999972265625Z" fill="#000000" fill-opacity="0.30000001192092896"/></g></g></svg>