<svg xmlns="http://www.w3.org/2000/svg" xmlns:xlink="http://www.w3.org/1999/xlink" fill="none" version="1.1" width="11.333388328552246" height="13.33344554901123" viewBox="0 0 11.333388328552246 13.33344554901123"><g><path d="M10.9421,8.35267C10.8053,7.92896,10.6552,7.50964,10.4921,7.09533L9.88548,5.598C9.88548,5.58067,9.89348,5.286,9.89348,5.134C9.89348,2.57333,8.67148,0,5.66681,0C2.66215,0,1.44015,2.57333,1.44015,5.13333C1.44015,5.286,1.44748,5.58067,1.44815,5.598L0.84148,7.09533C0.676147,7.524,0.51148,7.97,0.39148,8.35267C-0.181853,10.1773,0.00414674,10.9327,0.14548,10.9493Q0.448813,10.9853,1.32615,9.576C1.32615,10.392,1.75081,11.4573,2.67015,12.2267C2.32681,12.3313,1.90548,12.4927,1.63415,12.69C1.39081,12.868,1.42148,13.05,1.46548,13.1233C1.65815,13.444,4.76881,13.328,5.66748,13.228C6.56548,13.328,9.67681,13.444,9.86881,13.1227C9.91282,13.0493,9.94348,12.868,9.70015,12.69C9.42881,12.4927,9.00748,12.3313,8.66348,12.226C9.58281,11.4573,10.0075,10.392,10.0075,9.57533Q10.8848,10.9853,11.1881,10.9487C11.3295,10.932,11.5148,10.1773,10.9421,8.35267Z" fill="#000000" fill-opacity="1"/></g></svg>