<svg xmlns="http://www.w3.org/2000/svg" xmlns:xlink="http://www.w3.org/1999/xlink" fill="none" version="1.1" width="52" height="52" viewBox="0 0 52 52"><defs><linearGradient x1="0.014499443583190441" y1="1" x2="1" y2="1" id="master_svg0_588_4305"><stop offset="0%" stop-color="#7936EC" stop-opacity="1"/><stop offset="71.96386456489563%" stop-color="#C35BAD" stop-opacity="1"/><stop offset="99.99996423721313%" stop-color="#FF7979" stop-opacity="1"/></linearGradient><clipPath id="master_svg1_649_1464"><rect x="0" y="0" width="52" height="52" rx="4"/></clipPath><clipPath id="master_svg2_649_1717"><rect x="2" y="2" width="48.000003814697266" height="48.000003814697266" rx="4"/></clipPath></defs><g style="mix-blend-mode:passthrough" clip-path="url(#master_svg1_649_1464)"><rect x="0" y="0" width="52" height="52" rx="4" fill="url(#master_svg0_588_4305)" fill-opacity="1"/><g style="mix-blend-mode:passthrough"><path d="M29.0469,22.7422L32.960899999999995,22.7422C32.5469,25.2656,31.9531,27.4688,31.0859,29.367199999999997C30.1016,27.5625,29.3594,25.5312,28.8047,23.4062L29.0469,22.7422ZM16.22656,34.4922C16.78125,34.0469,17.59375,33.5781,21.41406,32.2188L21.41406,38.5L24.2656,38.5L24.2656,26.101599999999998C24.8672,26.773400000000002,25.664099999999998,27.835900000000002,26,28.4062C26.4297,27.882800000000003,26.8594,27.289099999999998,27.2188,26.648400000000002C27.8672,28.601599999999998,28.6172,30.4375,29.523400000000002,32.0703C28.25,33.7969,26.625,35.1875,24.5312,36.2266C25.1094,36.7734,26.0469,37.9766,26.3828,38.5781C28.3047,37.5234,29.8828,36.2266,31.1797,34.5938C32.3828,36.1719,33.7969,37.4453,35.476600000000005,38.4062C35.9062,37.6406,36.7969,36.5625,37.4453,36.0234C35.648399999999995,35.1094,34.1094,33.75,32.835899999999995,32.0938C34.25,29.5156,35.210899999999995,26.429699999999997,35.835899999999995,22.7422L37.2578,22.7422L37.2578,20L29.9062,20C30.2656,18.6875,30.5312,17.3516,30.7734,15.968800000000002L27.7969,15.4844C27.2422,19.3984,26.1172,23.085900000000002,24.2656,25.507800000000003L24.2656,15.843800000000002L21.41406,15.843800000000002L21.41406,29.3438L18.86719,30.1406L18.86719,18.1094L16.03906,18.1094L16.03906,29.992199999999997C16.03906,31,15.57812,31.5,15.14844,31.773400000000002C15.57812,32.4141,16.0625,33.75,16.22656,34.4922Z" fill="#FFFFFF" fill-opacity="1"/></g><g style="mix-blend-mode:passthrough" clip-path="url(#master_svg2_649_1717)"><rect x="3" y="3" width="46.000003814697266" height="46.000003814697266" rx="3" fill-opacity="0" stroke-opacity="1" stroke="#FFFFFF" fill="none" stroke-width="2"/></g></g></svg>