<svg xmlns="http://www.w3.org/2000/svg" xmlns:xlink="http://www.w3.org/1999/xlink" fill="none" version="1.1" width="29" height="29" viewBox="0 0 29 29"><defs><clipPath id="master_svg0_649_618"><rect x="0" y="0" width="29" height="29" rx="14.5"/></clipPath><clipPath id="master_svg1_649_709"><rect x="5" y="7" width="6" height="6" rx="3"/></clipPath><clipPath id="master_svg2_649_718"><rect x="17" y="7" width="6" height="6" rx="3"/></clipPath></defs><g style="mix-blend-mode:passthrough" clip-path="url(#master_svg0_649_618)"><g style="mix-blend-mode:passthrough" clip-path="url(#master_svg1_649_709)"><rect x="6" y="8" width="4" height="4" rx="2" fill-opacity="0" stroke-opacity="0.30000001192092896" stroke="#000000" fill="none" stroke-width="2"/></g><g style="mix-blend-mode:passthrough" clip-path="url(#master_svg2_649_718)"><rect x="18" y="8" width="4" height="4" rx="2" fill-opacity="0" stroke-opacity="0.30000001192092896" stroke="#000000" fill="none" stroke-width="2"/></g><g style="mix-blend-mode:passthrough"><path d="M14.5,24.99998Q9.13916,24.99998,6.687536,22.0089Q5,19.95005,5.000001,17.0000131471L5,16.000017L14.5,15.99999L24,16.000017L24,17.0000144875Q24,19.95004,22.3125,22.0089Q19.860799999999998,24.99998,14.5,24.99998L14.5,24.99998ZM14.5,22.99998Q18.9142,22.99998,20.765700000000002,20.74107Q22,19.235129999999998,22,17.0000144875L23,17.0000144875L23,18.00001L14.5,17.999994L6.00000235541,18.00001L6,17.0000144875L7,17.0000135558Q7,19.235129999999998,8.23434,20.74107Q10.08585,22.99998,14.5,22.99998L14.5,22.99998Z" fill="#000000" fill-opacity="0.30000001192092896"/></g><rect x="1" y="1" width="27" height="27" rx="13.5" fill-opacity="0" stroke-opacity="0.30000001192092896" stroke="#000000" fill="none" stroke-width="2"/></g></svg>