<svg xmlns="http://www.w3.org/2000/svg" xmlns:xlink="http://www.w3.org/1999/xlink" fill="none" version="1.1" width="24" height="24" viewBox="0 0 24 24"><defs><clipPath id="master_svg0_599_650"><rect x="3" y="3" width="18" height="18" rx="0"/></clipPath></defs><g style="mix-blend-mode:passthrough"><g style="mix-blend-mode:passthrough"><ellipse cx="12" cy="12" rx="12" ry="12" fill="#00B578" fill-opacity="1"/></g><g style="mix-blend-mode:passthrough" clip-path="url(#master_svg0_599_650)"><g style="mix-blend-mode:passthrough"><path d="M18.5303,6.96967C18.8232,7.262563,18.8232,7.737435,18.5303,8.03033C18.5303,8.03033,10.28033,16.28032,10.28033,16.28032C9.98743,16.5732,9.51257,16.5732,9.21967,16.28032C9.21967,16.28032,5.46967,12.53033,5.46967,12.53033C5.1767767,12.23743,5.1767767,11.76257,5.46967,11.46967C5.762563,11.17678,6.237435,11.17678,6.53033,11.46967C6.53033,11.46967,9.75,14.689350000000001,9.75,14.689350000000001C9.75,14.689350000000001,17.4697,6.96967,17.4697,6.96967C17.7625,6.6767767,18.2375,6.6767767,18.5303,6.96967C18.5303,6.96967,18.5303,6.96967,18.5303,6.96967Z" fill-rule="evenodd" fill="#FFFFFF" fill-opacity="1"/></g></g></g></svg>