<svg xmlns="http://www.w3.org/2000/svg" xmlns:xlink="http://www.w3.org/1999/xlink" fill="none" version="1.1" width="22" height="22" viewBox="0 0 22 22"><g><path d="M15.2319,9.5L12.2319,9.5L12.2319,8.5L13.2319,8.5L13.2319,15.5L12.2319,15.5L12.2319,14.5L15.2319,14.5L15.2319,15.5L14.2319,15.5L14.2319,8.5L15.2319,8.5L15.2319,9.5ZM15.2319,7.5Q15.3304,7.5,15.427,7.51921Q15.5236,7.53843,15.6146,7.57612Q15.7055,7.61381,15.7874,7.66853Q15.8693,7.72325,15.939,7.79289Q16.0086,7.86254,16.063299999999998,7.94443Q16.1181,8.02632,16.1558,8.11732Q16.1934,8.20831,16.212699999999998,8.30491Q16.2319,8.40151,16.2319,8.5L16.2319,15.5Q16.2319,15.5985,16.212699999999998,15.6951Q16.1934,15.7917,16.1558,15.8827Q16.1181,15.9737,16.063299999999998,16.0556Q16.0086,16.1375,15.939,16.2071Q15.8693,16.276699999999998,15.7874,16.3315Q15.7055,16.386200000000002,15.6146,16.4239Q15.5236,16.4616,15.427,16.480800000000002Q15.3304,16.5,15.2319,16.5L12.2319,16.5Q12.1334,16.5,12.0368,16.480800000000002Q11.9402,16.4616,11.8492,16.4239Q11.7582,16.386200000000002,11.6763,16.3315Q11.5944,16.276699999999998,11.5248,16.2071Q11.4551,16.1375,11.4004,16.0556Q11.3457,15.9737,11.308,15.8827Q11.2703,15.7917,11.2511,15.6951Q11.2319,15.5985,11.2319,15.5L11.2319,8.5Q11.2319,8.40151,11.2511,8.30491Q11.2703,8.20831,11.308,8.11732Q11.3457,8.02632,11.4004,7.94443Q11.4551,7.86254,11.5248,7.79289Q11.5944,7.72325,11.6763,7.66853Q11.7582,7.61381,11.8492,7.57612Q11.9402,7.53843,12.0368,7.51921Q12.1334,7.5,12.2319,7.5L15.2319,7.5ZM9.73187,9.5L6.73187,9.5L6.73187,8.5L7.73187,8.5L7.73187,15.5L6.73187,15.5L6.73187,14.5L9.73187,14.5L9.73187,15.5L8.73187,15.5L8.73187,8.5L9.73187,8.5L9.73187,9.5ZM9.73187,7.5Q9.83036,7.5,9.92696,7.51921Q10.02356,7.53843,10.11455,7.57612Q10.20555,7.61381,10.28744,7.66853Q10.36934,7.72325,10.43898,7.79289Q10.50862,7.86254,10.56334,7.94443Q10.61806,8.02632,10.65575,8.11732Q10.69344,8.20831,10.71266,8.30491Q10.73187,8.40151,10.73187,8.5L10.73187,15.5Q10.73187,15.5985,10.71266,15.6951Q10.69344,15.7917,10.65575,15.8827Q10.61806,15.9737,10.56334,16.0556Q10.50862,16.1375,10.43898,16.2071Q10.36934,16.276699999999998,10.28744,16.3315Q10.20555,16.386200000000002,10.11455,16.4239Q10.02356,16.4616,9.92696,16.480800000000002Q9.83036,16.5,9.73187,16.5L6.73187,16.5Q6.63338,16.5,6.53678,16.480800000000002Q6.44018,16.4616,6.34919,16.4239Q6.25819,16.386200000000002,6.1763,16.3315Q6.09441,16.276699999999998,6.02477,16.2071Q5.95512,16.1375,5.9004,16.0556Q5.84568,15.9737,5.80799,15.8827Q5.7703,15.7917,5.75109,15.6951Q5.73187,15.5985,5.73187,15.5L5.73187,8.5Q5.73187,8.40151,5.75109,8.30491Q5.7703,8.20831,5.80799,8.11732Q5.84568,8.02632,5.9004,7.94443Q5.95512,7.86254,6.02477,7.79289Q6.09441,7.72325,6.1763,7.66853Q6.25819,7.61381,6.34919,7.57612Q6.44018,7.53843,6.53678,7.51921Q6.63338,7.5,6.73187,7.5L9.73187,7.5ZM17,1L17,3L16,3L16,2L21,2Q21.0985,2,21.1951,2.01921Q21.2917,2.03843,21.3827,2.07612Q21.4737,2.11381,21.5556,2.16853Q21.6375,2.22325,21.7071,2.29289Q21.7767,2.36254,21.8315,2.44443Q21.8862,2.52632,21.9239,2.6173200000000003Q21.9616,2.70831,21.9808,2.80491Q22,2.90151,22,3L22,5Q22,5.09849,21.9808,5.19509Q21.9616,5.29169,21.9239,5.38268Q21.8862,5.47368,21.8315,5.55557Q21.7767,5.63746,21.7071,5.70711Q21.6375,5.77675,21.5556,5.83147Q21.4737,5.88619,21.3827,5.92388Q21.2917,5.96157,21.1951,5.98078Q21.0985,6,21,6L19,6L19,5L20,5L20,20Q20,20.8284,19.4142,21.4142Q18.8284,22,18,22L4,22Q3.17157,22,2.5857900000000003,21.4142Q2,20.8284,2,20L2,5L3,5L3,6L1,6Q0.9015086,6,0.80491,5.98078Q0.708311,5.96157,0.617317,5.92388Q0.526322,5.88619,0.44443,5.83147Q0.362537,5.77675,0.29289299999999996,5.70711Q0.22324900000000003,5.63746,0.16852999999999996,5.55557Q0.11381200000000002,5.47368,0.076121,5.38268Q0.038429999999999964,5.29169,0.019214999999999982,5.19509Q0,5.09849,0,5L0,3Q0,2.90151,0.019214999999999982,2.80491Q0.038429999999999964,2.70831,0.076121,2.6173200000000003Q0.11381200000000002,2.52632,0.16852999999999996,2.44443Q0.22324900000000003,2.36254,0.29289299999999996,2.29289Q0.362537,2.22325,0.44443,2.16853Q0.526322,2.11381,0.617317,2.07612Q0.708311,2.03843,0.80491,2.01921Q0.9015086,2,1,2L6,2L6,3L5,3L5,1Q5,0.9015086,5.01921,0.80491Q5.03843,0.708311,5.07612,0.617317Q5.11381,0.526322,5.16853,0.44443Q5.22325,0.362537,5.29289,0.29289299999999996Q5.36254,0.22324900000000003,5.44443,0.16852999999999996Q5.52632,0.11381200000000002,5.61732,0.076121Q5.70831,0.038429999999999964,5.80491,0.019214999999999982Q5.90151,0,6,0L16,0Q16.0985,0,16.1951,0.019214999999999982Q16.2917,0.038429999999999964,16.3827,0.076121Q16.4737,0.11381200000000002,16.5556,0.16852999999999996Q16.6375,0.22324900000000003,16.7071,0.29289299999999996Q16.776699999999998,0.362537,16.8315,0.44443Q16.886200000000002,0.526322,16.9239,0.617317Q16.9616,0.708311,16.980800000000002,0.80491Q17,0.9015086,17,1ZM15,1L16,1L16,2L6,2L6,1L7,1L7,3Q7,3.09849,6.98078,3.19509Q6.96157,3.29169,6.92388,3.38268Q6.88619,3.47368,6.83147,3.55557Q6.77675,3.63746,6.70711,3.70711Q6.63746,3.77675,6.55557,3.83147Q6.47368,3.88619,6.38268,3.92388Q6.29169,3.96157,6.19509,3.98078Q6.09849,4,6,4L1,4L1,3L2,3L2,5L1,5L1,4L3,4Q3.09849,4,3.19509,4.01921Q3.29169,4.03843,3.38268,4.0761199999999995Q3.47368,4.11381,3.55557,4.1685300000000005Q3.63746,4.22325,3.70711,4.29289Q3.77675,4.36254,3.83147,4.4444300000000005Q3.88619,4.52632,3.92388,4.617319999999999Q3.96157,4.70831,3.98078,4.80491Q4,4.90151,4,5L4,20L4,20L18,20L18,20L18,5Q18,4.90151,18.0192,4.80491Q18.0384,4.70831,18.0761,4.617319999999999Q18.1138,4.52632,18.1685,4.4444300000000005Q18.2232,4.36254,18.2929,4.29289Q18.3625,4.22325,18.4444,4.1685300000000005Q18.5263,4.11381,18.6173,4.0761199999999995Q18.7083,4.03843,18.8049,4.01921Q18.9015,4,19,4L21,4L21,5L20,5L20,3L21,3L21,4L16,4Q15.9015,4,15.8049,3.98078Q15.7083,3.96157,15.6173,3.92388Q15.5263,3.88619,15.4444,3.83147Q15.3625,3.77675,15.2929,3.70711Q15.2232,3.63746,15.1685,3.55557Q15.1138,3.47368,15.0761,3.38268Q15.0384,3.29169,15.0192,3.19509Q15,3.09849,15,3L15,1Z" fill="#000000" fill-opacity="1"/></g></svg>