<svg xmlns="http://www.w3.org/2000/svg" xmlns:xlink="http://www.w3.org/1999/xlink" fill="none" version="1.1" width="22.5" height="25.000001907348633" viewBox="0 0 22.5 25.000001907348633"><g style="mix-blend-mode:passthrough"><path d="M11.25,2.5C9.17894,2.5,7.5,4.17894,7.5,6.25C7.5,8.32106,9.17894,10,11.25,10C13.3211,10,15,8.32106,15,6.25C15,4.17894,13.3211,2.5,11.25,2.5C11.25,2.5,11.25,2.5,11.25,2.5ZM5,6.25C5,2.79823,7.79823,0,11.25,0C14.7017,0,17.5,2.79823,17.5,6.25C17.5,9.70178,14.7017,12.5,11.25,12.5C7.79823,12.5,5,9.70178,5,6.25C5,6.25,5,6.25,5,6.25ZM1.83059,16.8306C3.00269,15.6585,4.5924,15,6.25,15C6.25,15,16.25,15,16.25,15C17.9076,15,19.4974,15.6585,20.6694,16.8306C21.8415,18.0026,22.5,19.5924,22.5,21.25C22.5,21.25,22.5,23.75,22.5,23.75C22.5,24.4404,21.9404,25,21.25,25C20.5596,25,20,24.4404,20,23.75C20,23.75,20,21.25,20,21.25C20,20.2555,19.6049,19.3016,18.9016,18.5984C18.1984,17.8951,17.2445,17.5,16.25,17.5C16.25,17.5,6.25,17.5,6.25,17.5C5.25544,17.5,4.30161,17.8951,3.59835,18.5984C2.89509,19.3016,2.5,20.2554,2.5,21.25C2.5,21.25,2.5,23.75,2.5,23.75C2.5,24.4404,1.94035,25,1.25,25C0.559644,25,0,24.4404,0,23.75C0,23.75,0,21.25,0,21.25C0,19.5924,0.65848,18.0026,1.83059,16.8306C1.83059,16.8306,1.83059,16.8306,1.83059,16.8306Z" fill-rule="evenodd" fill="#000000" fill-opacity="1"/></g></svg>