<svg xmlns="http://www.w3.org/2000/svg" xmlns:xlink="http://www.w3.org/1999/xlink" fill="none" version="1.1" width="19.999210357666016" height="17.668277740478516" viewBox="0 0 19.999210357666016 17.668277740478516"><g><path d="M7.27,11.1692C6.95211,11.3314,6.56288,11.2124,6.39,10.9002L6.347,10.8052L4.529,6.8072C4.52155,6.75915,4.52155,6.71025,4.529,6.6622C4.52838,6.47804,4.67989,6.32969,4.864,6.3342C4.93503,6.3327,5.00435,6.35604,5.06,6.4002L7.24,7.9272C7.40162,8.03533,7.59154,8.09342,7.786,8.0942C7.90323,8.09483,8.01943,8.07241,8.128,8.0282L18.175,3.5282C16.0901,1.22554,13.1097,-0.0606096,10.004,0.0021975C4.478,0.00219965,0,3.7322,0,8.3702C0.0656972,10.9053,1.35514,13.2517,3.46,14.6662C3.68622,14.833,3.78245,15.1245,3.7,15.3932L3.25,17.0942C3.22264,17.1716,3.2055,17.2523,3.199,17.3342C3.19497,17.5203,3.34689,17.6722,3.533,17.6682C3.6001,17.6646,3.66531,17.6447,3.723,17.6102L5.903,16.3452C6.063,16.2472,6.246,16.1942,6.434,16.1932C6.533,16.1932,6.631,16.2072,6.724,16.2362C7.787,16.5362,8.885,16.6882,9.989,16.6862C15.514,16.6862,19.999,12.9572,19.999,8.3562C20.0095,6.98396,19.629,5.63711,18.902,4.4732L7.35,11.1252L7.27,11.1692Z" fill="#00B578" fill-opacity="1"/></g></svg>