<svg xmlns="http://www.w3.org/2000/svg" xmlns:xlink="http://www.w3.org/1999/xlink" fill="none" version="1.1" width="14.668615341186523" height="11.882801055908203" viewBox="0 0 14.668615341186523 11.882801055908203"><g><path d="M11.0167,5.7208C11.8587,5.98213,12.796,6.61147,12.796,7.72347C12.796,9.56547,10.1427,11.8828,6.15333,11.8828C3.11,11.8828,0,10.4075,0,7.98147C0,6.71347,0.802667,5.2468,2.18467,3.86347C4.03333,2.0168,6.18733,1.1748,6.99733,1.98613C7.35533,2.34413,7.38933,2.96213,7.16,3.7008Q7.04133,4.07213,7.51,3.86747C9.00333,3.24213,10.3073,3.2048,10.7827,3.88547C11.036,4.24747,11.0113,4.75613,10.7773,5.34547C10.6687,5.6168,10.8093,5.65947,11.0173,5.7208L11.0167,5.7208ZM6.162,11.0135C8.58933,10.7721,10.4293,9.28547,10.2733,7.69147C10.1153,6.09747,8.01867,4.99947,5.59133,5.24013C3.16467,5.48013,1.32267,6.9668,1.48,8.56013C1.638,10.1561,3.73467,11.2528,6.162,11.0135ZM3.44,7.7608C3.94267,6.7428,5.248,6.16747,6.404,6.46747C7.59933,6.77613,8.20867,7.90347,7.72133,9.0008C7.22533,10.1221,5.8,10.7195,4.59133,10.3295C3.42333,9.95213,2.92933,8.80013,3.44,7.7608ZM4.404,9.48547C4.78267,9.6568,5.28733,9.49413,5.52133,9.1188C5.752,8.74013,5.63,8.30747,5.25,8.14613C4.87467,7.98813,4.38933,8.15147,4.15667,8.5148C3.92067,8.87947,4.03067,9.31613,4.404,9.48547ZM5.87467,8.28013C6.02067,8.34147,6.20867,8.27213,6.29333,8.12613C6.37533,7.97947,6.32267,7.81547,6.17467,7.7608C6.03067,7.7048,5.85067,7.7728,5.766,7.91547C5.684,8.05813,5.73,8.2208,5.87467,8.28013ZM12.582,4.4688C12.501,4.72514,12.2263,4.86609,11.9708,4.78246C11.7153,4.69884,11.5771,4.42279,11.6633,4.16813C11.7666,3.85399,11.6933,3.5086,11.4713,3.26347C11.2489,3.01936,10.9137,2.91151,10.5907,2.98013C10.3299,3.03612,10.0731,2.87001,10.0173,2.6092C9.96153,2.3484,10.1278,2.09176,10.3887,2.03613C11.0495,1.89495,11.7354,2.11717,12.1879,2.61903C12.6404,3.12089,12.7906,3.82608,12.582,4.4688ZM9.97133,0.0854672C11.3284,-0.203737,12.7367,0.252325,13.6667,1.28213C14.5972,2.31359,14.9072,3.76294,14.48,5.0848C14.3852,5.38018,14.068,5.54181,13.7733,5.4448C13.4783,5.3488,13.3166,5.03206,13.412,4.7368C14.0664,2.71422,12.2863,0.741535,10.2073,1.18547C9.91171,1.2324,9.63099,1.03994,9.5682,0.747273C9.50541,0.454602,9.68247,0.16393,9.97133,0.0854672Z" fill="#000000" fill-opacity="1"/></g></svg>