<svg xmlns="http://www.w3.org/2000/svg" xmlns:xlink="http://www.w3.org/1999/xlink" fill="none" version="1.1" width="14.666666984558105" height="11.844001770019531" viewBox="0 0 14.666666984558105 11.844001770019531"><g><path d="M11.716,7.14067C12.0448,7.13636,12.3104,6.87083,12.3147,6.542C12.3147,6.21,12.0487,5.94333,11.716,5.94333C11.3833,5.94333,11.1173,6.21,11.1173,6.542C11.1173,6.87533,11.384,7.14067,11.716,7.14067ZM8.766,7.14067C9.09483,7.13636,9.36036,6.87083,9.36467,6.542C9.36467,6.21,9.098,5.94333,8.766,5.94333C8.43267,5.94333,8.16733,6.21,8.16733,6.542C8.16733,6.87533,8.43333,7.14067,8.766,7.14067ZM13.144,10.5007C13.0564,10.5494,13.0101,10.649,13.0293,10.7473C13.0293,10.7793,13.0293,10.812,13.046,10.8453C13.1113,11.1233,13.242,11.566,13.242,11.5827C13.242,11.6313,13.2587,11.664,13.2587,11.6973C13.2587,11.7786,13.1926,11.8444,13.1113,11.844C13.078,11.844,13.062,11.828,13.0293,11.812L12.0633,11.2547C11.9928,11.2158,11.9144,11.1935,11.834,11.1893C11.7853,11.1893,11.736,11.1893,11.7033,11.2053C11.2447,11.3367,10.77,11.402,10.2627,11.402C7.82267,11.402,5.858,9.764,5.858,7.732C5.858,5.70067,7.82267,4.062,10.2627,4.062C12.702,4.062,14.6667,5.70067,14.6667,7.732C14.6667,8.83,14.0773,9.82933,13.144,10.5013L13.144,10.5007ZM10.4487,3.39933C10.3865,3.39726,10.3242,3.39615,10.262,3.396C7.47933,3.396,5.19133,5.30267,5.19133,7.73267C5.19133,8.102,5.24467,8.45933,5.34333,8.79933L5.284,8.79933C4.7015,8.79345,4.12231,8.71096,3.56133,8.554C3.512,8.53733,3.46267,8.53733,3.41333,8.53733C3.31481,8.53943,3.21862,8.56773,3.13467,8.61933L1.96933,9.28933C1.936,9.306,1.90333,9.32267,1.87067,9.32267C1.77171,9.32159,1.69175,9.24163,1.69067,9.14267C1.69067,9.09333,1.70667,9.06067,1.72333,9.01133C1.73933,8.99533,1.88733,8.45533,1.96933,8.12867C1.96933,8.09533,1.98533,8.04667,1.98533,8.014C1.98497,7.89815,1.93046,7.78913,1.838,7.71933C0.705333,6.91733,0,5.724,0,4.39867C0,1.96333,2.38,0,5.3,0C7.81,0,9.92,1.446,10.4487,3.39867L10.4487,3.39933ZM7.01267,3.678C7.39467,3.678,7.69667,3.36,7.69667,2.994C7.69667,2.612,7.39467,2.31,7.01267,2.31C6.63067,2.31,6.32867,2.612,6.32867,2.994C6.32867,3.376,6.63067,3.678,7.01267,3.678ZM3.506,3.678C3.888,3.678,4.19067,3.36,4.19067,2.994C4.19067,2.612,3.888,2.31,3.506,2.31C3.12467,2.31,2.822,2.612,2.822,2.994C2.822,3.376,3.12467,3.678,3.506,3.678Z" fill="#000000" fill-opacity="1"/></g></svg>