<svg xmlns="http://www.w3.org/2000/svg" xmlns:xlink="http://www.w3.org/1999/xlink" fill="none" version="1.1" width="16" height="16" viewBox="0 0 16 16"><defs><clipPath id="master_svg0_564_2590"><rect x="0" y="0" width="16" height="16" rx="0"/></clipPath></defs><g style="mix-blend-mode:passthrough" clip-path="url(#master_svg0_564_2590)"><g style="mix-blend-mode:passthrough"><path d="M7.3333282470703125,2.666581953125C4.755998247070313,2.666581953125,2.6666582470703126,4.755921953125,2.6666582470703126,7.333251953125C2.6666582470703126,9.910581953125,4.755998247070313,11.999951953125,7.3333282470703125,11.999951953125C8.590598247070313,11.999951953125,9.731798247070312,11.502751953125,10.570928247070313,10.694181953125C10.588458247070312,10.671381953125,10.607658247070313,10.649381953125,10.628598247070313,10.628521953125C10.649458247070312,10.607581953125,10.671458247070312,10.588381953125,10.694258247070312,10.570851953125C11.502828247070312,9.731721953125,12.000028247070313,8.590521953125,12.000028247070313,7.333251953125C12.000028247070313,4.755921953125,9.910658247070312,2.666581953125,7.3333282470703125,2.666581953125C7.3333282470703125,2.666581953125,7.3333282470703125,2.666581953125,7.3333282470703125,2.666581953125ZM12.021228247070313,11.078381953125C12.842328247070313,10.051921953125,13.333328247070312,8.749921953125,13.333328247070312,7.333251953125C13.333328247070312,4.019541953125,10.647058247070312,1.333251953125,7.3333282470703125,1.333251953125C4.019618247070312,1.333251953125,1.3333282470703125,4.019541953125,1.3333282470703125,7.333251953125C1.3333282470703125,10.646981953125,4.019618247070312,13.333251953125,7.3333282470703125,13.333251953125C8.749998247070312,13.333251953125,10.051998247070312,12.842251953125,11.078458247070312,12.021151953125C11.078458247070312,12.021151953125,13.528628247070312,14.471351953125,13.528628247070312,14.471351953125C13.788928247070313,14.731651953125,14.211028247070313,14.731651953125,14.471428247070312,14.471351953125C14.731728247070313,14.210951953125,14.731728247070313,13.788851953125,14.471428247070312,13.528551953125C14.471428247070312,13.528551953125,12.021228247070313,11.078381953125,12.021228247070313,11.078381953125C12.021228247070313,11.078381953125,12.021228247070313,11.078381953125,12.021228247070313,11.078381953125Z" fill-rule="evenodd" fill="#000000" fill-opacity="1"/></g></g></svg>